<?xml version="1.0" encoding="UTF-8"?>
<svg version="1.1" xmlns="http://www.w3.org/2000/svg" width="752" height="752">
<path d="M0 0 C4.1710209 3.4920175 6.5966291 7.19325821 9 12 C9 12.99 9 13.98 9 15 C10.02480469 15.30550781 10.02480469 15.30550781 11.0703125 15.6171875 C15.01943769 17.48117459 17.73968714 20.12438034 20.875 23.125 C21.52557373 23.73883545 22.17614746 24.3526709 22.84643555 24.98510742 C27.67956481 29.5999476 32.27466173 34.40896876 36.8125 39.3125 C42.28061198 45.21568653 47.75305906 50.9023479 54 56 C54.5352832 56.44182617 55.07056641 56.88365234 55.62207031 57.33886719 C64.79847319 64.8153707 73.63648772 69.71863425 85 73 C85.8461084 73.24556641 86.6922168 73.49113281 87.56396484 73.74414062 C107.07536785 79.2599783 127.15691507 82.72296505 147.296875 84.953125 C148.66327938 85.11089987 150.02965348 85.2689372 151.39599609 85.42724609 C153.98195234 85.72595495 156.56108825 85.98240833 159.15478516 86.21728516 C167.06613544 87.10694545 171.82577774 88.81380089 177 95 C184.26431869 104.91026258 186.27254286 119.04667608 185 131 C182.40137602 143.74353457 176.58753212 153.39794805 166 161 C117.90483288 192.30326147 41.24347008 184.57652935 -13 175 C-23.48315159 172.67105075 -32.70776604 167.22806597 -41.9152832 161.87084961 C-52.82228351 155.57009038 -62.78364331 153.12710088 -75.40234375 155.69140625 C-85.92592771 158.68205615 -97.7271928 163.5907892 -104 173 C-132.46181673 185.22119993 -175.54646566 178.84495486 -205 174.125 C-205.94834717 173.97579102 -206.89669434 173.82658203 -207.8737793 173.67285156 C-216.98508462 172.09137022 -226.52174632 169.94098609 -233 163 C-237.4679779 156.2067257 -239.14225249 151.14317618 -239.125 143 C-239.12757813 141.783125 -239.13015625 140.56625 -239.1328125 139.3125 C-239 136 -239 136 -238.50488281 134.16674805 C-237.86496814 131.42049917 -237.83609099 128.83886791 -237.7890625 126.01953125 C-237.76070312 124.85486328 -237.73234375 123.69019531 -237.703125 122.49023438 C-237.65145966 120.05808854 -237.60706785 117.62577622 -237.5703125 115.19335938 C-237.36449738 107.40239934 -236.97672253 100.23196698 -232.37890625 93.6953125 C-226.65351457 88.74561905 -221.345617 87.37225812 -214 86 C-210.14255837 85.24514046 -206.28937006 84.47026528 -202.4375 83.6875 C-201.40616943 83.47883301 -200.37483887 83.27016602 -199.31225586 83.05517578 C-183.67354052 80.62790155 -183.67354052 80.62790155 -170 74 C-170.5168335 73.69932617 -171.03366699 73.39865234 -171.56616211 73.08886719 C-181.04807889 67.54858855 -190.41061612 61.91532359 -199.375 55.5625 C-200.0568335 55.07942383 -200.73866699 54.59634766 -201.44116211 54.09863281 C-203.31124493 52.75409528 -205.1553758 51.37913446 -207 50 C-207.59586914 49.58862793 -208.19173828 49.17725586 -208.80566406 48.75341797 C-210.4765625 47.52734375 -210.4765625 47.52734375 -213 45 C-213.86259766 37.80520831 -209.92014592 32.83113047 -206.375 26.875 C-205.44880859 25.24884766 -205.44880859 25.24884766 -204.50390625 23.58984375 C-200.55567203 16.86537746 -197.74516555 12.58172185 -190.1875 10.0625 C-179.49576758 9.85285819 -173.24723065 16.76807083 -165.76123047 23.45849609 C-161.05809388 27.57488152 -156.00756778 31.26575957 -151 35 C-150.24960449 35.56041992 -149.49920898 36.12083984 -148.72607422 36.69824219 C-146.2373155 38.55327311 -143.74462497 40.40286643 -141.25 42.25 C-140.46987549 42.82862793 -139.68975098 43.40725586 -138.88598633 44.00341797 C-137.36096286 45.12657605 -135.82936935 46.24087351 -134.29101562 47.34570312 C-132.71915986 48.48070895 -131.16642626 49.6425321 -129.63085938 50.82617188 C-128.47553711 51.67791992 -128.47553711 51.67791992 -127.296875 52.546875 C-126.61463867 53.06604492 -125.93240234 53.58521484 -125.22949219 54.12011719 C-121.92596616 55.42387407 -120.2025292 54.37215224 -117 53 C-112.62684405 51.0214826 -108.35046206 48.84354472 -104.0625 46.6875 C-103.44562317 46.37864868 -102.82874634 46.06979736 -102.19317627 45.75158691 C-90.76436557 40.01968604 -79.6228523 33.84872649 -68.54882812 27.45800781 C-65.47694875 25.70079866 -62.37774685 23.99772199 -59.27270508 22.30004883 C-47.84618944 16.04839261 -36.71640361 9.30510003 -25.5769043 2.55883789 C-24.30133667 1.78721313 -24.30133667 1.78721313 -23 1 C-22.10385986 0.4527124 -21.20771973 -0.0945752 -20.28442383 -0.65844727 C-13.59651924 -4.58599196 -6.66385136 -3.57873499 0 0 Z M-20.4296875 11.3671875 C-21.01716766 11.717314 -21.60464783 12.06744049 -22.20993042 12.42817688 C-24.10709865 13.56315395 -25.99068469 14.71883498 -27.875 15.875 C-29.19210943 16.66731025 -30.51015049 17.45807377 -31.82910156 18.24731445 C-34.41453484 19.79705089 -36.99525806 21.35411835 -39.57128906 22.91943359 C-43.61192843 25.37438176 -47.6741098 27.79156556 -51.75 30.1875 C-52.71099609 30.75331787 -52.71099609 30.75331787 -53.69140625 31.33056641 C-72.79471815 42.52889781 -92.28432132 52.93291134 -112 63 C-108.77197705 65.62377741 -105.70041909 67.8986895 -102 69.8125 C-101.175 70.25207031 -100.35 70.69164062 -99.5 71.14453125 C-94.42236719 72.88203373 -89.94499258 70.23919178 -85.27734375 68.1484375 C-84.62782745 67.85778915 -83.97831116 67.56714081 -83.30911255 67.26768494 C-81.18167991 66.31111367 -79.05906485 65.34451142 -76.9375 64.375 C-76.20779999 64.04253265 -75.47809998 63.71006531 -74.72628784 63.36752319 C-32.49999995 46.73225256 -32.49999995 46.73225256 -1.109375 17.9453125 C-0.92086716 14.59256587 -3.04428941 12.5703625 -5 10 C-6.91303086 7.66689503 -6.91303086 7.66689503 -10.22314453 7.66455078 C-14.52014583 8.04619783 -16.75789553 9.14177526 -20.4296875 11.3671875 Z M-190.60864258 22.26293945 C-192.0340643 24.04252807 -193.16011476 25.79730935 -194.26171875 27.79296875 C-194.65810547 28.50517578 -195.05449219 29.21738281 -195.46289062 29.95117188 C-195.86701172 30.68916016 -196.27113281 31.42714844 -196.6875 32.1875 C-197.10322266 32.93708984 -197.51894531 33.68667969 -197.94726562 34.45898438 C-198.96937725 36.30348466 -199.9852981 38.1514131 -201 40 C-196.72725007 44.73775147 -191.8315406 47.89043505 -186.4375 51.25 C-184.99479736 52.15745972 -184.99479736 52.15745972 -183.52294922 53.08325195 C-171.10215701 60.86429768 -158.56587803 68.45637086 -146 76 C-144.95522491 76.62757202 -144.95522491 76.62757202 -143.88934326 77.26782227 C-139.49863499 79.9042889 -135.1044197 82.53478411 -130.70599365 85.15835571 C-129.28741488 86.00490216 -127.86947634 86.85252246 -126.45220947 87.70126343 C-124.47160178 88.88654298 -122.48818361 90.06697058 -120.50390625 91.24609375 C-119.62604713 91.77302826 -119.62604713 91.77302826 -118.73045349 92.31060791 C-115.57093049 94.18016728 -112.4489218 95.73908223 -109 97 C-108.67386719 96.18015625 -108.34773438 95.3603125 -108.01171875 94.515625 C-107.57472656 93.43796875 -107.13773437 92.3603125 -106.6875 91.25 C-106.25824219 90.18265625 -105.82898438 89.1153125 -105.38671875 88.015625 C-104.14579439 85.31705146 -102.81203992 83.32256628 -101 81 C-101.79712402 80.56469971 -101.79712402 80.56469971 -102.61035156 80.12060547 C-122.6923964 69.08193114 -140.96088427 56.08194509 -159 42 C-160.24863043 41.03116301 -161.49732652 40.06241065 -162.74609375 39.09375 C-171.99275526 31.89245601 -171.99275526 31.89245601 -176.39453125 28.09375 C-176.93875732 27.62670654 -177.4829834 27.15966309 -178.04370117 26.6784668 C-179.5293422 25.39513168 -181.00337691 24.09839541 -182.4765625 22.80078125 C-185.38180501 20.72753543 -187.5680448 19.87577717 -190.60864258 22.26293945 Z M5 26 C5 26.66 5 27.32 5 28 C4.43410156 28.25007813 3.86820313 28.50015625 3.28515625 28.7578125 C0.65894068 30.18539635 -1.31353764 31.90399928 -3.5625 33.875 C-23.23088998 50.11828777 -47.24108271 61.56237596 -70.24267578 72.21875 C-71.24411621 72.68667969 -72.24555664 73.15460938 -73.27734375 73.63671875 C-74.16671631 74.04623779 -75.05608887 74.45575684 -75.97241211 74.87768555 C-78.1533257 75.83501237 -78.1533257 75.83501237 -79 78 C-78.13375 78.350625 -77.2675 78.70125 -76.375 79.0625 C-70.70701217 82.31634487 -67.0267887 86.7608532 -65 93 C-64.06905799 101.19712576 -65.33361113 106.75352883 -69.6875 113.6875 C-74.70773012 118.70773012 -79.41037655 120.26176236 -86.5 120.5 C-93.92516495 120.2427772 -98.61019787 118.27081675 -104.02734375 113.29296875 C-108.71504902 109.24054805 -113.86829052 106.09001118 -119.1875 102.9375 C-120.15236328 102.31939453 -121.11722656 101.70128906 -122.11132812 101.06445312 C-127.40321201 97.95137287 -130.87000801 96.41735442 -136.9609375 97.9140625 C-138.98303538 98.58251783 -140.99626273 99.27837039 -143 100 C-145.03593726 100.57705305 -147.07645517 101.13817299 -149.12109375 101.68359375 C-150.14783203 101.96952393 -151.17457031 102.2554541 -152.23242188 102.55004883 C-176.68547223 109.32083174 -200.59596297 113.54051143 -226 113 C-226 117.95 -226 122.9 -226 128 C-205.32327073 135.59019176 -182.76877488 135.4551526 -161 135.625 C-157.5403736 135.66159452 -154.08085677 135.70200667 -150.62133789 135.74765015 C-148.49689346 135.77475091 -146.37236684 135.79615623 -144.24780273 135.81118774 C-142.83736694 135.82658096 -142.83736694 135.82658096 -141.3984375 135.84228516 C-140.15586182 135.85202866 -140.15586182 135.85202866 -138.88818359 135.86196899 C-137 136 -137 136 -136 137 C-135.875 140 -135.875 140 -136 143 C-139.09028302 146.09028302 -146.82087321 145.14159629 -150.953125 145.16796875 C-151.927052 145.17432091 -151.927052 145.17432091 -152.9206543 145.18080139 C-155.03050224 145.19067761 -157.14013297 145.19071644 -159.25 145.1875 C-160.34096985 145.18659363 -160.34096985 145.18659363 -161.45397949 145.18566895 C-182.31583235 145.13890116 -202.75323996 143.90040419 -223.16015625 139.33544922 C-225.18019535 138.91031605 -225.18019535 138.91031605 -228 139 C-229.77482432 144.67943784 -228.04683662 149.44106605 -225.875 154.75 C-221.18560655 160.37727215 -213.59802037 161.85665667 -206.6875 163.125 C-205.81867188 163.29040283 -204.94984375 163.45580566 -204.0546875 163.6262207 C-188.50172927 166.47769016 -172.78276678 167.46646856 -157 168 C-155.27136719 168.06380859 -155.27136719 168.06380859 -153.5078125 168.12890625 C-145.71020439 168.27189417 -137.96218369 167.74456456 -130.1875 167.1875 C-128.5938562 167.08248169 -128.5938562 167.08248169 -126.96801758 166.9753418 C-118.74355869 166.32830028 -110.71214882 165.53960428 -104.8125 159.25 C-93.17276522 148.23889201 -77.71260522 144.42540042 -62.06640625 144.51416016 C-50.53491419 144.90602922 -41.6946234 150.07147251 -31.9362793 155.68774414 C-20.11713953 162.43769493 -8.38450086 165.36670554 5 167 C6.06057617 167.13680176 7.12115234 167.27360352 8.21386719 167.41455078 C28.15217879 169.88387253 48.04825414 170.31584962 68.125 170.375 C69.32722198 170.38276459 70.52944397 170.39052917 71.76809692 170.39852905 C101.83719641 170.55164578 141.33858156 169.75845271 165.08984375 148.09375 C172.38518675 140.3202767 174.58502266 133.0352626 174.47729492 122.45825195 C174.16758362 114.55319821 172.06599677 107.82591995 168.3125 100.875 C164.85005107 98.06760898 161.29386805 97.59524685 157 97 C155.70191406 96.81566406 154.40382813 96.63132812 153.06640625 96.44140625 C147.03233165 95.62634758 141.1074056 94.86702383 135 95 C134.8040625 95.60328125 134.608125 96.2065625 134.40625 96.828125 C132.76188743 101.22254222 131.43801369 104.29280823 127.1875 106.5625 C122.73459968 108.35190624 118.72443504 109.05480197 114.11328125 107.26953125 C110.07687268 105.19632349 107.64845382 103.21271532 106 99 C105.77076672 97.27819578 105.5839136 95.5504489 105.4296875 93.8203125 C105.34702637 92.91812988 105.26436523 92.01594727 105.17919922 91.08642578 C105.09049561 90.05364502 105.09049561 90.05364502 105 89 C104.03513672 88.77449463 104.03513672 88.77449463 103.05078125 88.54443359 C67.62166968 80.18624625 67.62166968 80.18624625 56 71 C55.154375 70.34257812 54.30875 69.68515625 53.4375 69.0078125 C41.68668613 59.6271912 30.19683087 49.32682744 20.4375 37.875 C13.92169088 30.07325534 13.92169088 30.07325534 5 26 Z M-161.91015625 83.3203125 C-177.25220221 88.70562164 -192.90089798 93.19418475 -208.96484375 95.86328125 C-210.06638794 96.04745605 -210.06638794 96.04745605 -211.19018555 96.23535156 C-213.08664851 96.53655583 -214.98852541 96.80313281 -216.890625 97.06640625 C-220.70795365 98.21256397 -222.42807087 100.01714234 -225 103 C-197.04076968 103.99953554 -170.61947331 98.18421434 -144 90 C-152.06275833 82.99005588 -152.06275833 82.99005588 -161.91015625 83.3203125 Z M-96.75 91.875 C-98.60976996 95.03660894 -99.32173527 97.28521948 -98.6328125 100.95703125 C-97.48446093 104.77778122 -96.19214677 107.33518131 -92.8125 109.5625 C-89.38907137 111.18374316 -86.56226132 111.38621874 -82.859375 110.67578125 C-78.78050322 109.19333415 -76.68556193 106.21531433 -74.625 102.5625 C-73.81176043 99.22821777 -73.99216753 97.29225273 -75 94 C-76.90395224 91.13741447 -78.87181078 88.56409461 -82 87 C-88.42876647 86.57844154 -92.16348121 86.96087273 -96.75 91.875 Z M116 92 C115.67 92.66 115.34 93.32 115 94 C116.15684329 96.0995533 116.15684329 96.0995533 118 98 C120.62625139 98.33425735 120.62625139 98.33425735 123 98 C123.66 96.35 124.32 94.7 125 93 C122.03 92.67 119.06 92.34 116 92 Z " fill="#000000" transform="translate(403,287)"/>
<path d="M0 0 C4.12441356 2.68983493 7.09935137 5.26253929 8.51171875 10.01953125 C9.36150371 15.38322774 8.7085621 19.12192808 5.875 23.875 C1.98408365 28.13647981 -1.25225444 29.69140655 -6.88671875 30.00390625 C-12.02982615 29.70770635 -15.23652536 27.66690131 -19 24.3125 C-22.02585101 20.29473095 -22.38935941 15.78567623 -22.125 10.875 C-20.4294173 5.5887716 -17.48569001 3.0546698 -13.125 -0.125 C-8.46247142 -1.67917619 -4.63746673 -1.66948802 0 0 Z M-11.125 11.875 C-11.45833333 14.375 -11.45833333 14.375 -11.125 16.875 C-9.29796773 19.1241908 -9.29796773 19.1241908 -6.625 19.125 C-3.95203227 19.1241908 -3.95203227 19.1241908 -2.125 16.875 C-1.79166667 14.375 -1.79166667 14.375 -2.125 11.875 C-3.95203227 9.6258092 -3.95203227 9.6258092 -6.625 9.625 C-9.29796773 9.6258092 -9.29796773 9.6258092 -11.125 11.875 Z " fill="#000000" transform="translate(525.125,411.125)"/>
<path d="M0 0 C4.71878688 1.69164058 7.20582817 3.86048618 10 8 C11.676194 13.02858199 11.60642735 17.34030411 9.8125 22.25 C7.46100791 25.8177811 4.81557843 28.09221079 1 30 C-4.28305214 30.52657873 -8.66862857 30.64191122 -13.5 28.3125 C-18.13677089 24.02348693 -19.67266448 20.3284868 -20 14 C-19.18431889 8.18827209 -17.08067863 5.66985976 -12.65625 2.1640625 C-8.62950013 -0.66605887 -4.78342956 -0.44365704 0 0 Z M-9 13 C-8.67028521 16.29714793 -8.3773161 17.6226839 -6 20 C-2.69316534 19.71016731 -2.69316534 19.71016731 0 18 C0.2500773 15.54190002 0.2500773 15.54190002 0 13 C-1.82703227 10.7508092 -1.82703227 10.7508092 -4.5 10.75 C-7.17296773 10.7508092 -7.17296773 10.7508092 -9 13 Z " fill="#000000" transform="translate(457,365)"/>
<path d="M0 0 C3.84118998 3.06170164 6.08751618 5.83037657 6.8671875 10.80078125 C7.09202155 15.91575586 6.40494354 19.67496655 3.1796875 23.73828125 C-0.2873905 27.27930167 -3.25340564 28.67421392 -8.265625 28.89453125 C-13.61883041 28.67677374 -16.92584301 27.21297064 -20.75390625 23.46484375 C-23.87839619 19.69421284 -24.32573498 16.10595895 -24.1328125 11.36328125 C-23.40394026 6.22646739 -20.99540454 3.14268073 -17.1328125 -0.19921875 C-12.19120794 -3.49362179 -5.06917303 -2.8502493 0 0 Z M-13.1328125 10.80078125 C-13.46614583 13.30078125 -13.46614583 13.30078125 -13.1328125 15.80078125 C-11.30578023 18.04997205 -11.30578023 18.04997205 -8.6328125 18.05078125 C-5.95984477 18.04997205 -5.95984477 18.04997205 -4.1328125 15.80078125 C-3.79947917 13.30078125 -3.79947917 13.30078125 -4.1328125 10.80078125 C-5.95984477 8.55159045 -5.95984477 8.55159045 -8.6328125 8.55078125 C-11.30578023 8.55159045 -11.30578023 8.55159045 -13.1328125 10.80078125 Z " fill="#000000" transform="translate(386.1328125,365.19921875)"/>
<path d="M0 0 C3.63237002 4.06479502 5.75786152 7.671321 5.53125 13.2421875 C4.57035394 18.73038229 2.69143105 22.14832561 -1.375 25.9375 C-6.24264069 28.48194854 -11.17427118 28.49049541 -16.375 26.9375 C-20.04953349 24.73834738 -22.64055499 22.18286328 -24.8125 18.5 C-25.82219797 13.90026481 -25.85413915 10.26844208 -24.25 5.8125 C-21.77086201 2.01115508 -18.90253149 -1.21312587 -14.45703125 -2.70703125 C-9.09047644 -3.62327232 -4.62606401 -2.82703912 0 0 Z M-14.375 9.9375 C-14.70833333 12.4375 -14.70833333 12.4375 -14.375 14.9375 C-12.54796773 17.1866908 -12.54796773 17.1866908 -9.875 17.1875 C-7.20203227 17.1866908 -7.20203227 17.1866908 -5.375 14.9375 C-5.04166667 12.4375 -5.04166667 12.4375 -5.375 9.9375 C-7.20203227 7.6883092 -7.20203227 7.6883092 -9.875 7.6875 C-12.54796773 7.6883092 -12.54796773 7.6883092 -14.375 9.9375 Z " fill="#000000" transform="translate(414.375,400.0625)"/>
<path d="M0 0 C3.5677811 2.35149209 5.84221079 4.99692157 7.75 8.8125 C8.30319423 13.85472938 8.33090722 17.71077941 5.9375 22.25 C0.56552831 28.54288112 0.56552831 28.54288112 -4.73828125 29.05078125 C-9.33839315 29.17166939 -12.52182378 29.15058181 -16.75 27.1875 C-21.01656985 23.13425864 -22.41718524 19.61990733 -22.6875 13.8125 C-22.5388897 9.10650709 -21.41071965 6.4122085 -18.25 2.8125 C-12.86412785 -1.92053917 -6.58073981 -2.40450109 0 0 Z M-11.125 11.0625 C-12.46804394 12.7575357 -12.46804394 12.7575357 -12.0625 14.875 C-11.31529664 16.99962526 -11.31529664 16.99962526 -9.25 18.8125 C-6.15073181 18.49051034 -6.15073181 18.49051034 -3.25 17.8125 C-2.5621764 15.45882287 -2.5621764 15.45882287 -2.25 12.8125 C-2.91 11.8225 -3.57 10.8325 -4.25 9.8125 C-7.17524805 9.36246184 -8.64310702 9.40790468 -11.125 11.0625 Z " fill="#000000" transform="translate(417.25,332.1875)"/>
<path d="M0 0 C4.64425866 2.49413891 8.31375022 4.94125067 10 10 C10.49927255 15.66482316 10.76914072 20.42318627 7 25 C4.10464356 28.25727599 2.16823888 29.77235358 -2.26953125 30.23828125 C-8.07287413 30.40765685 -11.45634729 29.98954872 -16 26 C-19.73648314 21.69848771 -20.26042132 17.59485811 -20 12 C-18.82677913 7.44697065 -16.74595918 4.12230612 -12.8125 1.5 C-8.63828222 -0.50649095 -4.53516357 -0.83433792 0 0 Z M-6 10 C-8.27528469 11.80126705 -8.94682181 12.6366157 -9.375 15.5625 C-9.25125 16.366875 -9.1275 17.17125 -9 18 C-6.30844799 20.264384 -6.30844799 20.264384 -3.9375 19.75 C-1.80523025 19.07467282 -1.80523025 19.07467282 0 17 C0.07272562 14.44539786 0.07272562 14.44539786 -1 12 C-3.47636012 10.62533375 -3.47636012 10.62533375 -6 10 Z " fill="#000000" transform="translate(469,412)"/>
</svg>
